<svg id="visual" viewBox="0 0 900 600" width="900" height="600" xmlns="http://www.w3.org/2000/svg" xmlns:xlink="http://www.w3.org/1999/xlink" version="1.1"><g stroke-width="1" stroke-linejoin="bevel"><path d="M434.1 339L483.9 387L513.9 307Z" fill="#e4e4e4" stroke="#e4e4e4"></path><path d="M483.9 387L565.7 342L513.9 307Z" fill="#f5f5f5" stroke="#f5f5f5"></path><path d="M565.7 342L570.7 270L513.9 307Z" fill="#dfdfdf" stroke="#dfdfdf"></path><path d="M513.9 307L419.1 240L434.1 339Z" fill="#d9d9d9" stroke="#d9d9d9"></path><path d="M507.9 206L419.1 240L513.9 307Z" fill="#e7e7e7" stroke="#e7e7e7"></path><path d="M419.1 240L375.1 283L434.1 339Z" fill="#ededed" stroke="#ededed"></path><path d="M356.3 451L455.9 472L483.9 387Z" fill="#e7e7e7" stroke="#e7e7e7"></path><path d="M356.3 451L483.9 387L434.1 339Z" fill="#d9d9d9" stroke="#d9d9d9"></path><path d="M483.9 387L580.7 454L565.7 342Z" fill="#ededed" stroke="#ededed"></path><path d="M570.7 270L507.9 206L513.9 307Z" fill="#e1e1e1" stroke="#e1e1e1"></path><path d="M570.7 270L561.7 213L507.9 206Z" fill="#efefef" stroke="#efefef"></path><path d="M528.9 502L580.7 454L483.9 387Z" fill="#dfdfdf" stroke="#dfdfdf"></path><path d="M565.7 342L628.5 289L570.7 270Z" fill="#efefef" stroke="#efefef"></path><path d="M655.5 362L628.5 289L565.7 342Z" fill="#dfdfdf" stroke="#dfdfdf"></path><path d="M570.7 270L644.5 192L561.7 213Z" fill="#eaeaea" stroke="#eaeaea"></path><path d="M288.3 344L356.3 451L434.1 339Z" fill="#f5f5f5" stroke="#f5f5f5"></path><path d="M411.1 510L528.9 502L455.9 472Z" fill="#eaeaea" stroke="#eaeaea"></path><path d="M455.9 472L528.9 502L483.9 387Z" fill="#f2f2f2" stroke="#f2f2f2"></path><path d="M580.7 454L655.5 362L565.7 342Z" fill="#e1e1e1" stroke="#e1e1e1"></path><path d="M356.3 451L373.1 487L455.9 472Z" fill="#efefef" stroke="#efefef"></path><path d="M373.1 487L411.1 510L455.9 472Z" fill="#e4e4e4" stroke="#e4e4e4"></path><path d="M644.5 192L537.7 161L561.7 213Z" fill="#dfdfdf" stroke="#dfdfdf"></path><path d="M561.7 213L537.7 161L507.9 206Z" fill="#e7e7e7" stroke="#e7e7e7"></path><path d="M507.9 206L448.9 124L419.1 240Z" fill="#efefef" stroke="#efefef"></path><path d="M595.7 536L635.5 453L580.7 454Z" fill="#efefef" stroke="#efefef"></path><path d="M580.7 454L635.5 453L655.5 362Z" fill="#dfdfdf" stroke="#dfdfdf"></path><path d="M283.3 259L288.3 344L375.1 283Z" fill="#ededed" stroke="#ededed"></path><path d="M375.1 283L288.3 344L434.1 339Z" fill="#e1e1e1" stroke="#e1e1e1"></path><path d="M356.3 451L290.3 523L373.1 487Z" fill="#e4e4e4" stroke="#e4e4e4"></path><path d="M328.3 180L375.1 283L419.1 240Z" fill="#ededed" stroke="#ededed"></path><path d="M328.3 180L283.3 259L375.1 283Z" fill="#d9d9d9" stroke="#d9d9d9"></path><path d="M537.7 161L448.9 124L507.9 206Z" fill="#ededed" stroke="#ededed"></path><path d="M686.5 201L644.5 192L628.5 289Z" fill="#eaeaea" stroke="#eaeaea"></path><path d="M628.5 289L644.5 192L570.7 270Z" fill="#e1e1e1" stroke="#e1e1e1"></path><path d="M537.7 161L550.7 41L448.9 124Z" fill="#efefef" stroke="#efefef"></path><path d="M382.1 138L328.3 180L419.1 240Z" fill="#ededed" stroke="#ededed"></path><path d="M448.9 124L382.1 138L419.1 240Z" fill="#efefef" stroke="#efefef"></path><path d="M249.5 318L255.5 351L288.3 344Z" fill="#eaeaea" stroke="#eaeaea"></path><path d="M288.3 344L257.5 465L356.3 451Z" fill="#e7e7e7" stroke="#e7e7e7"></path><path d="M550.7 600L595.7 536L528.9 502Z" fill="#eaeaea" stroke="#eaeaea"></path><path d="M528.9 502L595.7 536L580.7 454Z" fill="#e7e7e7" stroke="#e7e7e7"></path><path d="M635.5 453L710.4 367L655.5 362Z" fill="#ededed" stroke="#ededed"></path><path d="M655.5 362L710.4 367L628.5 289Z" fill="#e7e7e7" stroke="#e7e7e7"></path><path d="M739.4 451L710.4 367L635.5 453Z" fill="#f2f2f2" stroke="#f2f2f2"></path><path d="M245.5 264L249.5 318L283.3 259Z" fill="#eaeaea" stroke="#eaeaea"></path><path d="M283.3 259L249.5 318L288.3 344Z" fill="#e4e4e4" stroke="#e4e4e4"></path><path d="M382.1 138L342.3 137L328.3 180Z" fill="#e1e1e1" stroke="#e1e1e1"></path><path d="M328.3 180L245.5 264L283.3 259Z" fill="#dfdfdf" stroke="#dfdfdf"></path><path d="M362.3 60L342.3 137L382.1 138Z" fill="#ededed" stroke="#ededed"></path><path d="M260.5 116L245.5 264L328.3 180Z" fill="#f5f5f5" stroke="#f5f5f5"></path><path d="M778.4 279L686.5 201L628.5 289Z" fill="#e1e1e1" stroke="#e1e1e1"></path><path d="M644.5 192L658.5 111L537.7 161Z" fill="#f2f2f2" stroke="#f2f2f2"></path><path d="M206.6 370L257.5 465L255.5 351Z" fill="#ededed" stroke="#ededed"></path><path d="M255.5 351L257.5 465L288.3 344Z" fill="#e4e4e4" stroke="#e4e4e4"></path><path d="M373.1 487L385.1 600L411.1 510Z" fill="#dfdfdf" stroke="#dfdfdf"></path><path d="M206.6 370L255.5 351L249.5 318Z" fill="#f5f5f5" stroke="#f5f5f5"></path><path d="M385.1 600L505.9 600L411.1 510Z" fill="#d9d9d9" stroke="#d9d9d9"></path><path d="M411.1 510L505.9 600L528.9 502Z" fill="#f5f5f5" stroke="#f5f5f5"></path><path d="M550.7 600L615.5 564L595.7 536Z" fill="#efefef" stroke="#efefef"></path><path d="M595.7 536L691.4 535L635.5 453Z" fill="#efefef" stroke="#efefef"></path><path d="M257.5 465L290.3 523L356.3 451Z" fill="#dfdfdf" stroke="#dfdfdf"></path><path d="M505.9 600L550.7 600L528.9 502Z" fill="#eaeaea" stroke="#eaeaea"></path><path d="M127.6 306L206.6 370L249.5 318Z" fill="#e4e4e4" stroke="#e4e4e4"></path><path d="M290.3 523L385.1 600L373.1 487Z" fill="#dcdcdc" stroke="#dcdcdc"></path><path d="M691.4 535L739.4 451L635.5 453Z" fill="#dcdcdc" stroke="#dcdcdc"></path><path d="M780.4 235L716.4 158L686.5 201Z" fill="#efefef" stroke="#efefef"></path><path d="M615.5 564L691.4 535L595.7 536Z" fill="#dfdfdf" stroke="#dfdfdf"></path><path d="M669.5 600L691.4 535L615.5 564Z" fill="#d9d9d9" stroke="#d9d9d9"></path><path d="M716.4 158L658.5 111L644.5 192Z" fill="#e7e7e7" stroke="#e7e7e7"></path><path d="M778.4 279L628.5 289L710.4 367Z" fill="#d9d9d9" stroke="#d9d9d9"></path><path d="M686.5 201L716.4 158L644.5 192Z" fill="#e4e4e4" stroke="#e4e4e4"></path><path d="M206.6 370L219.5 485L257.5 465Z" fill="#ededed" stroke="#ededed"></path><path d="M257.5 465L219.5 485L290.3 523Z" fill="#e7e7e7" stroke="#e7e7e7"></path><path d="M290.3 523L292.3 600L385.1 600Z" fill="#dfdfdf" stroke="#dfdfdf"></path><path d="M802.2 429L778.4 279L710.4 367Z" fill="#eaeaea" stroke="#eaeaea"></path><path d="M448.9 124L362.3 60L382.1 138Z" fill="#dfdfdf" stroke="#dfdfdf"></path><path d="M342.3 137L260.5 116L328.3 180Z" fill="#f2f2f2" stroke="#f2f2f2"></path><path d="M471.9 33L362.3 60L448.9 124Z" fill="#dcdcdc" stroke="#dcdcdc"></path><path d="M658.5 111L550.7 41L537.7 161Z" fill="#e4e4e4" stroke="#e4e4e4"></path><path d="M550.7 41L471.9 33L448.9 124Z" fill="#dfdfdf" stroke="#dfdfdf"></path><path d="M362.3 60L260.5 116L342.3 137Z" fill="#dfdfdf" stroke="#dfdfdf"></path><path d="M245.5 264L170.6 239L249.5 318Z" fill="#efefef" stroke="#efefef"></path><path d="M778.4 279L780.4 235L686.5 201Z" fill="#ededed" stroke="#ededed"></path><path d="M824.2 144L710.4 119L716.4 158Z" fill="#ededed" stroke="#ededed"></path><path d="M716.4 158L710.4 119L658.5 111Z" fill="#d9d9d9" stroke="#d9d9d9"></path><path d="M619.5 0L584.7 0L550.7 41Z" fill="#f2f2f2" stroke="#f2f2f2"></path><path d="M550.7 600L669.5 600L615.5 564Z" fill="#e7e7e7" stroke="#e7e7e7"></path><path d="M857.2 545L802.2 429L739.4 451Z" fill="#e7e7e7" stroke="#e7e7e7"></path><path d="M196.6 544L292.3 600L290.3 523Z" fill="#e1e1e1" stroke="#e1e1e1"></path><path d="M260.5 116L170.6 239L245.5 264Z" fill="#ededed" stroke="#ededed"></path><path d="M206.6 370L148.6 444L219.5 485Z" fill="#e4e4e4" stroke="#e4e4e4"></path><path d="M471.9 33L367.1 34L362.3 60Z" fill="#f2f2f2" stroke="#f2f2f2"></path><path d="M362.3 60L231.5 64L260.5 116Z" fill="#ededed" stroke="#ededed"></path><path d="M807.2 600L739.4 451L691.4 535Z" fill="#f2f2f2" stroke="#f2f2f2"></path><path d="M739.4 451L802.2 429L710.4 367Z" fill="#ededed" stroke="#ededed"></path><path d="M778.4 279L834.2 257L780.4 235Z" fill="#d9d9d9" stroke="#d9d9d9"></path><path d="M584.7 0L516.9 0L550.7 41Z" fill="#dcdcdc" stroke="#dcdcdc"></path><path d="M550.7 41L516.9 0L471.9 33Z" fill="#ededed" stroke="#ededed"></path><path d="M471.9 33L374.1 0L367.1 34Z" fill="#e4e4e4" stroke="#e4e4e4"></path><path d="M106.8 362L148.6 444L206.6 370Z" fill="#e1e1e1" stroke="#e1e1e1"></path><path d="M219.5 485L196.6 544L290.3 523Z" fill="#f5f5f5" stroke="#f5f5f5"></path><path d="M148.6 444L196.6 544L219.5 485Z" fill="#dfdfdf" stroke="#dfdfdf"></path><path d="M669.5 600L718.4 600L691.4 535Z" fill="#f2f2f2" stroke="#f2f2f2"></path><path d="M170.6 239L127.6 306L249.5 318Z" fill="#f5f5f5" stroke="#f5f5f5"></path><path d="M619.5 0L550.7 41L658.5 111Z" fill="#e1e1e1" stroke="#e1e1e1"></path><path d="M516.9 0L374.1 0L471.9 33Z" fill="#d9d9d9" stroke="#d9d9d9"></path><path d="M367.1 34L354.3 0L362.3 60Z" fill="#e7e7e7" stroke="#e7e7e7"></path><path d="M132.6 151L123.8 284L170.6 239Z" fill="#e7e7e7" stroke="#e7e7e7"></path><path d="M170.6 239L123.8 284L127.6 306Z" fill="#efefef" stroke="#efefef"></path><path d="M127.6 306L106.8 362L206.6 370Z" fill="#d9d9d9" stroke="#d9d9d9"></path><path d="M780.4 235L824.2 144L716.4 158Z" fill="#f2f2f2" stroke="#f2f2f2"></path><path d="M851.2 417L834.2 257L778.4 279Z" fill="#f2f2f2" stroke="#f2f2f2"></path><path d="M374.1 0L354.3 0L367.1 34Z" fill="#f5f5f5" stroke="#f5f5f5"></path><path d="M260.5 116L132.6 151L170.6 239Z" fill="#dcdcdc" stroke="#dcdcdc"></path><path d="M713.4 0L658.5 111L710.4 119Z" fill="#e1e1e1" stroke="#e1e1e1"></path><path d="M713.4 0L619.5 0L658.5 111Z" fill="#d9d9d9" stroke="#d9d9d9"></path><path d="M354.3 0L231.5 64L362.3 60Z" fill="#f5f5f5" stroke="#f5f5f5"></path><path d="M0 338L106.8 362L127.6 306Z" fill="#f2f2f2" stroke="#f2f2f2"></path><path d="M118.6 600L203.5 600L196.6 544Z" fill="#efefef" stroke="#efefef"></path><path d="M900 255L840.2 227L834.2 257Z" fill="#dfdfdf" stroke="#dfdfdf"></path><path d="M834.2 257L840.2 227L780.4 235Z" fill="#d9d9d9" stroke="#d9d9d9"></path><path d="M900 489L851.2 417L802.2 429Z" fill="#e4e4e4" stroke="#e4e4e4"></path><path d="M802.2 429L851.2 417L778.4 279Z" fill="#efefef" stroke="#efefef"></path><path d="M90.8 559L196.6 544L148.6 444Z" fill="#dcdcdc" stroke="#dcdcdc"></path><path d="M196.6 544L203.5 600L292.3 600Z" fill="#dfdfdf" stroke="#dfdfdf"></path><path d="M840.2 227L824.2 144L780.4 235Z" fill="#e7e7e7" stroke="#e7e7e7"></path><path d="M231.5 64L132.6 151L260.5 116Z" fill="#ededed" stroke="#ededed"></path><path d="M123.8 284L0 338L127.6 306Z" fill="#ededed" stroke="#ededed"></path><path d="M815.2 33L713.4 0L710.4 119Z" fill="#dcdcdc" stroke="#dcdcdc"></path><path d="M718.4 600L807.2 600L691.4 535Z" fill="#d9d9d9" stroke="#d9d9d9"></path><path d="M900 489L900 397L851.2 417Z" fill="#eaeaea" stroke="#eaeaea"></path><path d="M851.2 417L900 397L834.2 257Z" fill="#dcdcdc" stroke="#dcdcdc"></path><path d="M840.2 227L900 159L824.2 144Z" fill="#efefef" stroke="#efefef"></path><path d="M354.3 0L224.5 0L231.5 64Z" fill="#dcdcdc" stroke="#dcdcdc"></path><path d="M231.5 64L119.6 49L132.6 151Z" fill="#eaeaea" stroke="#eaeaea"></path><path d="M900 397L900 255L834.2 257Z" fill="#e7e7e7" stroke="#e7e7e7"></path><path d="M807.2 600L857.2 545L739.4 451Z" fill="#f2f2f2" stroke="#f2f2f2"></path><path d="M0 390L70.8 467L106.8 362Z" fill="#f2f2f2" stroke="#f2f2f2"></path><path d="M106.8 362L70.8 467L148.6 444Z" fill="#dfdfdf" stroke="#dfdfdf"></path><path d="M900 255L900 236L840.2 227Z" fill="#f5f5f5" stroke="#f5f5f5"></path><path d="M824.2 144L815.2 33L710.4 119Z" fill="#e1e1e1" stroke="#e1e1e1"></path><path d="M857.2 545L900 489L802.2 429Z" fill="#e4e4e4" stroke="#e4e4e4"></path><path d="M90.8 559L118.6 600L196.6 544Z" fill="#dcdcdc" stroke="#dcdcdc"></path><path d="M224.5 0L191.6 0L231.5 64Z" fill="#f5f5f5" stroke="#f5f5f5"></path><path d="M70.8 467L90.8 559L148.6 444Z" fill="#e7e7e7" stroke="#e7e7e7"></path><path d="M900 600L900 507L857.2 545Z" fill="#ededed" stroke="#ededed"></path><path d="M857.2 545L900 507L900 489Z" fill="#e1e1e1" stroke="#e1e1e1"></path><path d="M900 96L815.2 33L824.2 144Z" fill="#e7e7e7" stroke="#e7e7e7"></path><path d="M900 236L900 159L840.2 227Z" fill="#dcdcdc" stroke="#dcdcdc"></path><path d="M191.6 0L119.6 49L231.5 64Z" fill="#efefef" stroke="#efefef"></path><path d="M132.6 151L39.8 181L123.8 284Z" fill="#efefef" stroke="#efefef"></path><path d="M50.8 153L39.8 181L132.6 151Z" fill="#e7e7e7" stroke="#e7e7e7"></path><path d="M119.6 49L50.8 153L132.6 151Z" fill="#eaeaea" stroke="#eaeaea"></path><path d="M0 220L0 338L123.8 284Z" fill="#d9d9d9" stroke="#d9d9d9"></path><path d="M70.8 467L0 515L90.8 559Z" fill="#f5f5f5" stroke="#f5f5f5"></path><path d="M0 338L0 390L106.8 362Z" fill="#d9d9d9" stroke="#d9d9d9"></path><path d="M97.8 0L102.8 38L119.6 49Z" fill="#d9d9d9" stroke="#d9d9d9"></path><path d="M119.6 49L102.8 38L50.8 153Z" fill="#e4e4e4" stroke="#e4e4e4"></path><path d="M900 159L900 96L824.2 144Z" fill="#dfdfdf" stroke="#dfdfdf"></path><path d="M0 390L0 446L70.8 467Z" fill="#f2f2f2" stroke="#f2f2f2"></path><path d="M90.8 559L56.8 600L118.6 600Z" fill="#efefef" stroke="#efefef"></path><path d="M807.2 600L900 600L857.2 545Z" fill="#f2f2f2" stroke="#f2f2f2"></path><path d="M39.8 181L0 220L123.8 284Z" fill="#dcdcdc" stroke="#dcdcdc"></path><path d="M0 147L0 220L39.8 181Z" fill="#f5f5f5" stroke="#f5f5f5"></path><path d="M0 147L39.8 181L50.8 153Z" fill="#ededed" stroke="#ededed"></path><path d="M0 515L56.8 600L90.8 559Z" fill="#e1e1e1" stroke="#e1e1e1"></path><path d="M900 96L847.2 0L815.2 33Z" fill="#e7e7e7" stroke="#e7e7e7"></path><path d="M815.2 33L847.2 0L713.4 0Z" fill="#efefef" stroke="#efefef"></path><path d="M0 446L0 515L70.8 467Z" fill="#dcdcdc" stroke="#dcdcdc"></path><path d="M191.6 0L97.8 0L119.6 49Z" fill="#f2f2f2" stroke="#f2f2f2"></path><path d="M0 64L0 147L50.8 153Z" fill="#e4e4e4" stroke="#e4e4e4"></path><path d="M0 64L50.8 153L102.8 38Z" fill="#eaeaea" stroke="#eaeaea"></path><path d="M900 96L900 0L847.2 0Z" fill="#f5f5f5" stroke="#f5f5f5"></path><path d="M0 515L0 600L56.8 600Z" fill="#e1e1e1" stroke="#e1e1e1"></path><path d="M0 0L0 64L102.8 38Z" fill="#e1e1e1" stroke="#e1e1e1"></path><path d="M97.8 0L0 0L102.8 38Z" fill="#dcdcdc" stroke="#dcdcdc"></path></g></svg>