<svg id="visual" viewBox="0 0 900 450" width="900" height="450" xmlns="http://www.w3.org/2000/svg" xmlns:xlink="http://www.w3.org/1999/xlink" version="1.1"><g stroke-width="1" stroke-linejoin="bevel"><path d="M462 257L585 242L496 212Z" fill="#009fff" stroke="#009fff"></path><path d="M585 242L567 199L496 212Z" fill="#0096ff" stroke="#0096ff"></path><path d="M462 257L525 364L585 242Z" fill="#56ccf2" stroke="#56ccf2"></path><path d="M462 257L422 332L525 364Z" fill="#42c6f5" stroke="#42c6f5"></path><path d="M462 257L398 286L422 332Z" fill="#3777ff" stroke="#3777ff"></path><path d="M372 149L398 286L462 257Z" fill="#42c6f5" stroke="#42c6f5"></path><path d="M618 397L675 237L585 242Z" fill="#008dff" stroke="#008dff"></path><path d="M585 242L675 237L567 199Z" fill="#56ccf2" stroke="#56ccf2"></path><path d="M605 450L618 397L525 364Z" fill="#0096ff" stroke="#0096ff"></path><path d="M525 364L618 397L585 242Z" fill="#00b0fe" stroke="#00b0fe"></path><path d="M567 199L483 111L496 212Z" fill="#42c6f5" stroke="#42c6f5"></path><path d="M496 212L372 149L462 257Z" fill="#2dbff8" stroke="#2dbff8"></path><path d="M571 50L483 111L567 199Z" fill="#56ccf2" stroke="#56ccf2"></path><path d="M398 450L473 450L422 332Z" fill="#1b82ff" stroke="#1b82ff"></path><path d="M422 332L473 450L525 364Z" fill="#00a8ff" stroke="#00a8ff"></path><path d="M483 111L372 149L496 212Z" fill="#3777ff" stroke="#3777ff"></path><path d="M473 450L605 450L525 364Z" fill="#1b82ff" stroke="#1b82ff"></path><path d="M775 200L728 183L675 237Z" fill="#14b8fb" stroke="#14b8fb"></path><path d="M372 149L330 246L398 286Z" fill="#1b82ff" stroke="#1b82ff"></path><path d="M398 286L338 344L422 332Z" fill="#00a8ff" stroke="#00a8ff"></path><path d="M330 246L338 344L398 286Z" fill="#1b82ff" stroke="#1b82ff"></path><path d="M483 111L388 99L372 149Z" fill="#00a8ff" stroke="#00a8ff"></path><path d="M372 149L317 140L330 246Z" fill="#00b0fe" stroke="#00b0fe"></path><path d="M738 353L675 237L618 397Z" fill="#42c6f5" stroke="#42c6f5"></path><path d="M675 237L682 89L567 199Z" fill="#2dbff8" stroke="#2dbff8"></path><path d="M338 344L398 450L422 332Z" fill="#42c6f5" stroke="#42c6f5"></path><path d="M682 89L571 50L567 199Z" fill="#14b8fb" stroke="#14b8fb"></path><path d="M483 111L403 0L388 99Z" fill="#009fff" stroke="#009fff"></path><path d="M715 450L738 353L618 397Z" fill="#56ccf2" stroke="#56ccf2"></path><path d="M728 183L682 89L675 237Z" fill="#56ccf2" stroke="#56ccf2"></path><path d="M388 99L317 140L372 149Z" fill="#14b8fb" stroke="#14b8fb"></path><path d="M330 246L236 306L338 344Z" fill="#2dbff8" stroke="#2dbff8"></path><path d="M807 232L775 200L675 237Z" fill="#00a8ff" stroke="#00a8ff"></path><path d="M728 183L804 64L682 89Z" fill="#00a8ff" stroke="#00a8ff"></path><path d="M605 450L715 450L618 397Z" fill="#0096ff" stroke="#0096ff"></path><path d="M738 353L781 337L675 237Z" fill="#008dff" stroke="#008dff"></path><path d="M762 450L781 337L738 353Z" fill="#0096ff" stroke="#0096ff"></path><path d="M608 0L527 0L571 50Z" fill="#1b82ff" stroke="#1b82ff"></path><path d="M571 50L527 0L483 111Z" fill="#14b8fb" stroke="#14b8fb"></path><path d="M388 99L281 122L317 140Z" fill="#008dff" stroke="#008dff"></path><path d="M672 0L608 0L682 89Z" fill="#2dbff8" stroke="#2dbff8"></path><path d="M682 89L608 0L571 50Z" fill="#2dbff8" stroke="#2dbff8"></path><path d="M781 337L807 232L675 237Z" fill="#2dbff8" stroke="#2dbff8"></path><path d="M804 64L672 0L682 89Z" fill="#00b0fe" stroke="#00b0fe"></path><path d="M267 0L281 122L388 99Z" fill="#009fff" stroke="#009fff"></path><path d="M317 140L281 122L330 246Z" fill="#00b0fe" stroke="#00b0fe"></path><path d="M182 181L236 306L330 246Z" fill="#2dbff8" stroke="#2dbff8"></path><path d="M338 344L269 450L398 450Z" fill="#009fff" stroke="#009fff"></path><path d="M527 0L403 0L483 111Z" fill="#56ccf2" stroke="#56ccf2"></path><path d="M715 450L762 450L738 353Z" fill="#0096ff" stroke="#0096ff"></path><path d="M781 337L900 270L807 232Z" fill="#00b0fe" stroke="#00b0fe"></path><path d="M804 64L728 183L775 200Z" fill="#3777ff" stroke="#3777ff"></path><path d="M236 306L269 450L338 344Z" fill="#0096ff" stroke="#0096ff"></path><path d="M900 190L804 64L775 200Z" fill="#14b8fb" stroke="#14b8fb"></path><path d="M236 306L228 450L269 450Z" fill="#00a8ff" stroke="#00a8ff"></path><path d="M202 110L182 181L281 122Z" fill="#009fff" stroke="#009fff"></path><path d="M281 122L182 181L330 246Z" fill="#008dff" stroke="#008dff"></path><path d="M236 306L173 380L228 450Z" fill="#42c6f5" stroke="#42c6f5"></path><path d="M267 0L202 110L281 122Z" fill="#2dbff8" stroke="#2dbff8"></path><path d="M137 320L173 380L236 306Z" fill="#00b0fe" stroke="#00b0fe"></path><path d="M900 342L900 270L781 337Z" fill="#00b0fe" stroke="#00b0fe"></path><path d="M807 232L900 190L775 200Z" fill="#56ccf2" stroke="#56ccf2"></path><path d="M403 0L267 0L388 99Z" fill="#14b8fb" stroke="#14b8fb"></path><path d="M900 450L900 342L781 337Z" fill="#00b0fe" stroke="#00b0fe"></path><path d="M900 270L900 190L807 232Z" fill="#42c6f5" stroke="#42c6f5"></path><path d="M135 207L137 320L236 306Z" fill="#009fff" stroke="#009fff"></path><path d="M135 207L236 306L182 181Z" fill="#2dbff8" stroke="#2dbff8"></path><path d="M69 236L135 207L74 103Z" fill="#009fff" stroke="#009fff"></path><path d="M74 103L135 207L182 181Z" fill="#3777ff" stroke="#3777ff"></path><path d="M900 80L819 0L804 64Z" fill="#42c6f5" stroke="#42c6f5"></path><path d="M804 64L819 0L672 0Z" fill="#3777ff" stroke="#3777ff"></path><path d="M267 0L212 0L202 110Z" fill="#1b82ff" stroke="#1b82ff"></path><path d="M762 450L900 450L781 337Z" fill="#2dbff8" stroke="#2dbff8"></path><path d="M900 190L900 80L804 64Z" fill="#2dbff8" stroke="#2dbff8"></path><path d="M74 103L182 181L202 110Z" fill="#009fff" stroke="#009fff"></path><path d="M135 207L69 236L137 320Z" fill="#008dff" stroke="#008dff"></path><path d="M137 320L75 450L173 380Z" fill="#3777ff" stroke="#3777ff"></path><path d="M900 80L900 0L819 0Z" fill="#00a8ff" stroke="#00a8ff"></path><path d="M71 0L74 103L202 110Z" fill="#56ccf2" stroke="#56ccf2"></path><path d="M0 320L75 450L137 320Z" fill="#42c6f5" stroke="#42c6f5"></path><path d="M173 380L75 450L228 450Z" fill="#56ccf2" stroke="#56ccf2"></path><path d="M0 187L0 238L69 236Z" fill="#14b8fb" stroke="#14b8fb"></path><path d="M69 236L0 320L137 320Z" fill="#00b0fe" stroke="#00b0fe"></path><path d="M0 238L0 320L69 236Z" fill="#56ccf2" stroke="#56ccf2"></path><path d="M74 103L0 187L69 236Z" fill="#00a8ff" stroke="#00a8ff"></path><path d="M212 0L71 0L202 110Z" fill="#00b0fe" stroke="#00b0fe"></path><path d="M0 69L0 187L74 103Z" fill="#42c6f5" stroke="#42c6f5"></path><path d="M0 320L0 450L75 450Z" fill="#009fff" stroke="#009fff"></path><path d="M71 0L0 69L74 103Z" fill="#009fff" stroke="#009fff"></path><path d="M71 0L0 0L0 69Z" fill="#42c6f5" stroke="#42c6f5"></path></g></svg>